<svg id="lcd_digit" xmlns="http://www.w3.org/2000/svg" viewBox="0 0 47 82">
  <defs>
    <style>
      .cls-1 {
        fill: gray;
        opacity: 0.25;
      }
    </style>
  </defs>
  <circle id="point" cx="24" cy="76" r="6"/>
  <polygon id="bottomMiddle" class="cls-1" points="37 82 41 78 33 70 14 70 6 78 10 82 37 82"/>
  <polygon id="bottomRight" class="cls-1" points="43 76 47 72 47 45 43 41 35 49 35 68 43 76"/>
  <polygon id="bottomLeft" class="cls-1" points="4 76 12 68 12 49 4 41 0 45 0 72 4 76"/>
  <polygon id="middleMiddle" class="cls-1" points="33 47 39 41 33 35 14 35 8 41 14 47 33 47"/>
  <polygon id="topRight" class="cls-1" points="43 41 47 37 47 10 43 6 35 14 35 33 43 41"/>
  <polygon id="topLeft" class="cls-1" points="4 41 12 33 12 14 4 6 0 10 0 37 4 41"/>
  <polygon id="topMiddle" class="cls-1" points="33 12 41 4 37 0 10 0 6 4 14 12 33 12"/>
</svg>
