<svg id="Layer_1" data-name="Layer 1" xmlns="http://www.w3.org/2000/svg" viewBox="0 0 226 236.9">
  <defs>
    <style>
      .cls-1 {
        fill: #fff;
      }

      .cls-1, .cls-2 {
        stroke: #000;
        stroke-linecap: round;
        stroke-linejoin: round;
        stroke-width: 5px;
      }

      .cls-2 {
        fill: none;
      }
    </style>
  </defs>
  <g id="g5439">
    <g id="g3915-6-1-6-3-8-9-4">
      <path id="path3894-6-1-0-5-5-2-9" class="cls-1" d="M29.17,101.28c-11.29-.68-12.59-9.67-11.24-19.63,1.91-14.09,22.36-38,33.81-43.15C62.25,33.8,72,35.23,75.55,43.42" transform="translate(-15 -9.55)"/>
      <path id="path3112-2-8-6-8-2-9-8" class="cls-1" d="M165.08,16.9c-6.75-12.45-25.66,1-43,18.21C115.39,41.78,79.22,39,60.67,52.58c-12.08,8.85-31.35,34.54-31,48.57.67,24,10.19,42.55,26.33,59.13a103.33,103.33,0,0,0,19.49,15.36c21.13,12.84,57.9,65,64.05,67.26,17.11,6.17,20.26-16.42,13.39-26.35-3.33-4.81-23.58-43-17.47-38.86,15,10.05,31.83,24,47,38,22.67,21,40.69-18.49,19.26-37.95-10-9.12-17.35-17.91-40.23-37.72,16.15,5.16,40,11.58,54.84,18.46,24.44,11.34,33.06-29,2.9-42.24-20.55-9-59.34-21.2-89.69-44.56,18.66-5.15,55.88-17.21,35.52-54.78Z" transform="translate(-15 -9.55)"/>
      <path id="path3882-6-1-33-9-9-7-9" d="M164.07,137.49c-19.14-7.45-30.66-6.9-36-7.4,12.12,4.34,15.32,5.12,27.9,10.73a27.75,27.75,0,0,1,7,4.64Z" transform="translate(-15 -9.55)"/>
      <path id="path3884-6-1-2-9-6-6-0" d="M137.22,175c-10-6.7-23.67-12.37-33.67-13.82,5.52,3.58,15,9.64,23.54,14.91a12.26,12.26,0,0,1,5.34,6.89c1-3,3-5.41,4.79-8Z" transform="translate(-15 -9.55)"/>
      <path id="path3886-8-5-4-3-7-0-8" class="cls-2" d="M47.86,95.37c8.91,13.94,12.57,16.36,17.88,22.38" transform="translate(-15 -9.55)"/>
      <path id="path3888-4-4-9-8-4-7-4" class="cls-2" d="M55.39,82.59C68.73,95.1,76.33,99.85,86,107.38" transform="translate(-15 -9.55)"/>
      <path id="path3890-1-8-5-1-8-9-7" class="cls-2" d="M64.82,67.6c10.26,7.3,15.77,9.79,22.76,13.77" transform="translate(-15 -9.55)"/>
    </g>
  </g>
</svg>
