<?xml version="1.0" encoding="utf-8"?>
<svg version="1.1" id="Layer_1" xmlns="http://www.w3.org/2000/svg" xmlns:xlink="http://www.w3.org/1999/xlink" x="0px" y="0px" viewBox="0 0 228.2 219.5" style="enable-background:new 0 0 228.2 219.5;" xml:space="preserve">
	<style type="text/css">
		.st0{fill:#FFFFFF;stroke:#000000;stroke-width:5;stroke-linecap:round;stroke-linejoin:round;}
		.st1{fill:none;stroke:#000000;stroke-width:5;stroke-linecap:round;stroke-linejoin:round;}
	</style>
	<g id="g32290">
		<path id="path32292" class="st0" d="M70.8,33.3c-3.3-8.8-13.2-10.9-24.5-6.8C34.1,31.1,11.2,54.6,8.3,69.2
			C6.2,79.4,6.9,88.9,18.5,90.3"/>
		<path id="path32294" class="st0" d="M157,93c29.7,7.7,27.9,45-3.4,46.7c15.7,12.7-4.8,48.6-29.6,37.4
			c-10.8,19.6-35.9,12.6-62.2-6.2c-7.1-5-13.5-10.8-19.2-17.3c-15.7-18.4-24.4-38.3-23.4-63.3c0.5-14.7,22.5-39.8,35.4-48.5
			c25.4-16.5,72.1-10.3,91.4,6.9C166.1,66.5,157.1,87.1,157,93z"/>
		<path id="path32296" d="M150.7,141.8c1.1,0.8,2,1.7,2.8,2.7l5.1-8.8c-2.8,0.3-5.7,0-8.4-1c-13.6-4.5-16.7-6.1-29.1-11.3
			C125.7,126.8,130.7,134.1,150.7,141.8L150.7,141.8z"/>
		<path id="path32298" d="M124.3,180.8c0.8-6.8,0.9-6.8,0.9-6.8c-9.1-5.1-25.4-12.4-31.5-15.6C100,166.7,113.1,175.1,124.3,180.8
			L124.3,180.8z"/>
		<path id="path32300" class="st1" d="M55.5,110c-5.1-6.6-8.7-9.4-17.1-24.5"/>
		<path id="path32302" class="st1" d="M77.2,100.5c-9.5-8.4-17.1-13.9-30.1-27.9"/>
		<path id="path32304" class="st1" d="M80.6,73.6C73.7,69,68.1,66,57.9,57.7"/>
		<path id="path32306" d="M160.6,91l-5,5c-28.6-15.8-25.3-27.9-31.4-43.5C131.7,65.6,135,78.9,160.6,91L160.6,91z"/>
	</g>
</svg>
